<?xml version="1.0" standalone="no"?>
<!DOCTYPE svg PUBLIC "-//W3C//DTD SVG 20010904//EN"
 "http://www.w3.org/TR/2001/REC-SVG-20010904/DTD/svg10.dtd">
<svg version="1.0" xmlns="http://www.w3.org/2000/svg"
 width="512.000000pt" height="512.000000pt" viewBox="0 0 512.000000 512.000000"
 preserveAspectRatio="xMidYMid meet">

<g transform="translate(0.000000,512.000000) scale(0.100000,-0.100000)"
fill="#000000" stroke="none">
<path d="M1204 4880 c-590 -84 -1047 -507 -1175 -1090 -20 -87 -24 -134 -24
-275 1 -176 12 -258 57 -405 48 -156 86 -200 161 -186 42 8 57 24 90 98 72
161 264 252 433 204 158 -46 260 -171 271 -336 7 -98 -14 -154 -113 -303 -182
-272 -259 -503 -271 -807 -16 -428 133 -807 436 -1111 214 -213 448 -341 756
-410 l100 -23 1262 -3 1262 -4 33 30 c31 28 33 33 31 95 -5 244 -196 468 -441
517 l-63 13 8 61 c36 280 -42 527 -225 718 l-65 67 115 0 116 0 21 -69 c26
-84 104 -205 169 -260 26 -22 75 -57 109 -77 34 -20 69 -46 77 -59 8 -12 35
-32 59 -44 78 -38 157 -23 213 41 17 19 58 50 92 68 85 45 186 149 232 240 52
102 62 149 67 305 l5 150 38 40 c59 62 74 100 74 180 0 83 -21 131 -92 208
-88 93 -208 166 -342 208 -63 20 -96 24 -210 24 -125 -1 -142 -3 -225 -32
-128 -44 -207 -94 -303 -188 l-82 -83 -50 58 c-28 32 -50 61 -50 64 0 4 18 31
40 60 49 64 104 182 120 257 l13 56 146 6 c245 10 473 62 513 117 28 38 58
200 58 313 0 234 -86 449 -248 619 -133 139 -301 233 -477 265 -44 9 -87 19
-95 23 -12 6 -89 237 -181 544 -13 44 -32 80 -50 99 -45 45 -87 35 -191 -44
-305 -232 -467 -559 -468 -944 0 -149 -59 -342 -145 -480 -26 -42 -48 -75 -49
-73 -1 2 0 46 3 98 26 419 -125 804 -427 1091 -188 179 -431 305 -685 354 -96
19 -345 28 -433 15z m346 -204 c252 -38 473 -150 655 -331 174 -172 290 -391
330 -624 33 -186 13 -438 -48 -604 l-23 -62 -300 -243 c-442 -358 -508 -429
-628 -669 -222 -445 -167 -996 141 -1395 66 -87 179 -197 258 -254 38 -26 62
-50 55 -52 -22 -8 -163 19 -260 50 -389 124 -706 435 -834 820 -41 122 -57
216 -63 363 -11 299 57 529 238 802 112 169 149 266 149 393 -1 361 -349 637
-699 555 -78 -19 -186 -74 -245 -126 -51 -45 -50 -47 -67 78 -21 160 0 351 57
521 131 391 501 706 904 772 41 6 82 13 90 15 44 8 207 3 290 -9z m1994 -249
c33 -105 61 -197 64 -204 2 -7 -8 -15 -25 -18 -85 -19 -113 -46 -113 -108 0
-30 7 -46 30 -69 29 -28 34 -30 83 -24 193 23 290 15 420 -34 148 -56 297
-192 372 -341 60 -121 79 -213 72 -353 -3 -61 -8 -118 -11 -127 -5 -10 -35
-22 -84 -33 -281 -62 -558 -39 -829 69 -126 51 -161 55 -198 22 -40 -34 -45
-94 -11 -133 29 -36 180 -100 322 -137 70 -19 90 -28 92 -43 4 -29 -33 -127
-70 -184 l-33 -51 -25 29 c-50 58 -100 67 -149 26 -35 -29 -49 -81 -31 -115 7
-12 97 -122 201 -245 142 -168 195 -224 216 -228 15 -3 84 -15 153 -26 74 -13
132 -28 142 -37 29 -26 24 -87 -8 -112 -26 -21 -36 -21 -551 -21 l-525 0 -29
-29 c-38 -38 -40 -97 -5 -137 23 -27 28 -28 157 -35 75 -4 158 -15 189 -24
168 -51 325 -183 398 -336 127 -262 78 -546 -128 -751 -89 -88 -200 -148 -316
-173 -98 -21 -632 -21 -761 0 -231 38 -428 135 -597 295 -246 233 -369 539
-353 874 13 270 119 521 301 714 37 38 239 209 449 378 407 328 484 399 567
515 140 199 203 389 220 661 5 91 18 194 30 244 22 94 79 224 131 301 32 47
167 193 178 193 3 0 33 -87 65 -193z m1113 -1970 c114 -39 263 -158 263 -208
0 -9 -8 -27 -18 -39 -18 -22 -19 -22 -151 -11 -74 6 -214 11 -311 11 -139 0
-180 3 -189 14 -16 19 -97 52 -148 61 -24 4 -43 10 -43 15 0 14 91 89 144 119
49 27 122 54 176 65 63 12 206 -2 277 -27z m133 -462 c16 -10 12 -194 -6 -256
-34 -113 -117 -210 -222 -256 -31 -13 -64 -31 -74 -40 -10 -9 -18 -11 -22 -4
-4 5 -39 25 -79 45 -88 42 -157 109 -198 191 -27 54 -28 61 -13 70 106 64 160
128 170 202 10 71 -7 67 224 60 115 -3 214 -8 220 -12z"/>
<path d="M3797 3626 c-14 -13 -29 -36 -33 -50 -8 -35 12 -91 41 -110 37 -24
99 -20 132 8 24 21 28 32 28 76 0 44 -4 55 -28 76 -39 33 -104 33 -140 0z"/>
</g>
</svg>
