<?xml version="1.0"?>
<svg width="132" height="46" xmlns="http://www.w3.org/2000/svg" xmlns:svg="http://www.w3.org/2000/svg" preserveAspectRatio="xMidYMid meet" version="1.0">
 <g class="layer">
  <title>Layer 1</title>
  <g fill="#000000" id="svg_1" transform="rotate(1.76279, 21.0495, 21.0026) matrix(0.00623978, 0, 0, -0.00619658, 6.04817, -117.957)">
   <path d="m1048.65,-20104.57c-590,-84 -1047,-507 -1175,-1090c-20,-87 -24,-134 -24,-275c1,-176 12,-258 57,-405c48,-156 86,-200 161,-186c42,8 57,24 90,98c72,161 264,252 433,204c158,-46 260,-171 271,-336c7,-98 -14,-154 -113,-303c-182,-272 -259,-503 -271,-807c-16,-428 133,-807 436,-1111c214,-213 448,-341 756,-410l100,-23l1262,-3l1262,-4l33,30c31,28 33,33 31,95c-5,244 -196,468 -441,517l-63,13l8,61c36,280 -42,527 -225,718l-65,67l115,0l116,0l21,-69c26,-84 104,-205 169,-260c26,-22 75,-57 109,-77c34,-20 69,-46 77,-59c8,-12 35,-32 59,-44c78,-38 157,-23 213,41c17,19 58,50 92,68c85,45 186,149 232,240c52,102 62,149 67,305l5,150l38,40c59,62 74,100 74,180c0,83 -21,131 -92,208c-88,93 -208,166 -342,208c-63,20 -96,24 -210,24c-125,-1 -142,-3 -225,-32c-128,-44 -207,-94 -303,-188l-82,-83l-50,58c-28,32 -50,61 -50,64c0,4 18,31 40,60c49,64 104,182 120,257l13,56l146,6c245,10 473,62 513,117c28,38 58,200 58,313c0,234 -86,449 -248,619c-133,139 -301,233 -477,265c-44,9 -87,19 -95,23c-12,6 -89,237 -181,544c-13,44 -32,80 -50,99c-45,45 -87,35 -191,-44c-305,-232 -467,-559 -468,-944c0,-149 -59,-342 -145,-480c-26,-42 -48,-75 -49,-73c-1,2 0,46 3,98c26,419 -125,804 -427,1091c-188,179 -431,305 -685,354c-96,19 -345,28 -433,15zm346,-204c252,-38 473,-150 655,-331c174,-172 290,-391 330,-624c33,-186 13,-438 -48,-604l-23,-62l-300,-243c-442,-358 -508,-429 -628,-669c-222,-445 -167,-996 141,-1395c66,-87 179,-197 258,-254c38,-26 62,-50 55,-52c-22,-8 -163,19 -260,50c-389,124 -706,435 -834,820c-41,122 -57,216 -63,363c-11,299 57,529 238,802c112,169 149,266 149,393c-1,361 -349,637 -699,555c-78,-19 -186,-74 -245,-126c-51,-45 -50,-47 -67,78c-21,160 0,351 57,521c131,391 501,706 904,772c41,6 82,13 90,15c44,8 207,3 290,-9zm1994,-249c33,-105 61,-197 64,-204c2,-7 -8,-15 -25,-18c-85,-19 -113,-46 -113,-108c0,-30 7,-46 30,-69c29,-28 34,-30 83,-24c193,23 290,15 420,-34c148,-56 297,-192 372,-341c60,-121 79,-213 72,-353c-3,-61 -8,-118 -11,-127c-5,-10 -35,-22 -84,-33c-281,-62 -558,-39 -829,69c-126,51 -161,55 -198,22c-40,-34 -45,-94 -11,-133c29,-36 180,-100 322,-137c70,-19 90,-28 92,-43c4,-29 -33,-127 -70,-184l-33,-51l-25,29c-50,58 -100,67 -149,26c-35,-29 -49,-81 -31,-115c7,-12 97,-122 201,-245c142,-168 195,-224 216,-228c15,-3 84,-15 153,-26c74,-13 132,-28 142,-37c29,-26 24,-87 -8,-112c-26,-21 -36,-21 -551,-21l-525,0l-29,-29c-38,-38 -40,-97 -5,-137c23,-27 28,-28 157,-35c75,-4 158,-15 189,-24c168,-51 325,-183 398,-336c127,-262 78,-546 -128,-751c-89,-88 -200,-148 -316,-173c-98,-21 -632,-21 -761,0c-231,38 -428,135 -597,295c-246,233 -369,539 -353,874c13,270 119,521 301,714c37,38 239,209 449,378c407,328 484,399 567,515c140,199 203,389 220,661c5,91 18,194 30,244c22,94 79,224 131,301c32,47 167,193 178,193c3,0 33,-87 65,-193zm1113,-1970c114,-39 263,-158 263,-208c0,-9 -8,-27 -18,-39c-18,-22 -19,-22 -151,-11c-74,6 -214,11 -311,11c-139,0 -180,3 -189,14c-16,19 -97,52 -148,61c-24,4 -43,10 -43,15c0,14 91,89 144,119c49,27 122,54 176,65c63,12 206,-2 277,-27zm133,-462c16,-10 12,-194 -6,-256c-34,-113 -117,-210 -222,-256c-31,-13 -64,-31 -74,-40c-10,-9 -18,-11 -22,-4c-4,5 -39,25 -79,45c-88,42 -157,109 -198,191c-27,54 -28,61 -13,70c106,64 160,128 170,202c10,71 -7,67 224,60c115,-3 214,-8 220,-12z" fill="#fcf9f9" id="svg_2"/>
   <path d="m3641.65,-21358.57c-14,-13 -29,-36 -33,-50c-8,-35 12,-91 41,-110c37,-24 99,-20 132,8c24,21 28,32 28,76c0,44 -4,55 -28,76c-39,33 -104,33 -140,0z" fill="#fcf9f9" id="svg_3"/>
  </g>
  <text fill="#fcf9f9" font-family="Fantasy" font-size="35" id="svg_4" stroke="#000000" stroke-width="0" text-anchor="middle" x="84.5" xml:space="preserve" y="35.5">SZP</text>
 </g>

</svg>